<mxfile host="Electron" modified="2024-03-14T09:21:40.542Z" agent="Mozilla/5.0 (Windows NT 10.0; Win64; x64) AppleWebKit/537.36 (KHTML, like Gecko) draw.io/22.1.16 Chrome/120.0.6099.109 Electron/28.1.0 Safari/537.36" etag="1ElVCjhR_oZrVGIDFKat" version="22.1.16" type="device">
  <diagram name="第 1 页" id="bA_VUahFGqQkkIv4TsXd">
    <mxGraphModel dx="2589" dy="931" grid="1" gridSize="10" guides="1" tooltips="1" connect="1" arrows="1" fold="1" page="1" pageScale="1" pageWidth="827" pageHeight="1169" math="0" shadow="0">
      <root>
        <mxCell id="0" />
        <mxCell id="1" parent="0" />
        <mxCell id="Q5K_X9j4IUWQNPOCZs-H-3" value="" style="rounded=0;whiteSpace=wrap;html=1;" vertex="1" parent="1">
          <mxGeometry x="80" y="270" width="120" height="430" as="geometry" />
        </mxCell>
        <mxCell id="Q5K_X9j4IUWQNPOCZs-H-1" value="" style="rounded=0;whiteSpace=wrap;html=1;" vertex="1" parent="1">
          <mxGeometry x="80" y="200" width="680" height="500" as="geometry" />
        </mxCell>
        <mxCell id="Q5K_X9j4IUWQNPOCZs-H-17" value="" style="rounded=1;whiteSpace=wrap;html=1;" vertex="1" parent="1">
          <mxGeometry x="230" y="380" width="480" height="60" as="geometry" />
        </mxCell>
        <mxCell id="Q5K_X9j4IUWQNPOCZs-H-16" value="" style="rounded=0;whiteSpace=wrap;html=1;" vertex="1" parent="1">
          <mxGeometry x="80" y="270" width="120" height="430" as="geometry" />
        </mxCell>
        <mxCell id="Q5K_X9j4IUWQNPOCZs-H-11" value="类别1" style="rounded=0;whiteSpace=wrap;html=1;" vertex="1" parent="1">
          <mxGeometry x="80" y="270" width="120" height="60" as="geometry" />
        </mxCell>
        <mxCell id="Q5K_X9j4IUWQNPOCZs-H-12" value="类别2" style="rounded=0;whiteSpace=wrap;html=1;" vertex="1" parent="1">
          <mxGeometry x="80" y="330" width="120" height="60" as="geometry" />
        </mxCell>
        <mxCell id="Q5K_X9j4IUWQNPOCZs-H-13" value="类别3" style="rounded=0;whiteSpace=wrap;html=1;" vertex="1" parent="1">
          <mxGeometry x="80" y="390" width="120" height="60" as="geometry" />
        </mxCell>
        <mxCell id="Q5K_X9j4IUWQNPOCZs-H-2" value="消费者看到的/shop" style="rounded=0;whiteSpace=wrap;html=1;" vertex="1" parent="1">
          <mxGeometry x="80" y="200" width="680" height="70" as="geometry" />
        </mxCell>
        <mxCell id="Q5K_X9j4IUWQNPOCZs-H-19" value="图片" style="whiteSpace=wrap;html=1;aspect=fixed;" vertex="1" parent="1">
          <mxGeometry x="240" y="390" width="40" height="40" as="geometry" />
        </mxCell>
        <mxCell id="Q5K_X9j4IUWQNPOCZs-H-21" value="菜品名称" style="text;html=1;strokeColor=none;fillColor=none;align=center;verticalAlign=middle;whiteSpace=wrap;rounded=0;" vertex="1" parent="1">
          <mxGeometry x="280" y="380" width="60" height="30" as="geometry" />
        </mxCell>
        <mxCell id="Q5K_X9j4IUWQNPOCZs-H-22" value="描述aaaaaaaaaaaaaaaaaaaaaaaaaaaaaaaaaaa" style="text;html=1;strokeColor=none;fillColor=none;align=center;verticalAlign=middle;whiteSpace=wrap;rounded=0;" vertex="1" parent="1">
          <mxGeometry x="285" y="405" width="270" height="30" as="geometry" />
        </mxCell>
        <mxCell id="Q5K_X9j4IUWQNPOCZs-H-25" value="+" style="ellipse;whiteSpace=wrap;html=1;aspect=fixed;" vertex="1" parent="1">
          <mxGeometry x="647" y="395" width="30" height="30" as="geometry" />
        </mxCell>
        <mxCell id="Q5K_X9j4IUWQNPOCZs-H-26" value="" style="rounded=1;whiteSpace=wrap;html=1;" vertex="1" parent="1">
          <mxGeometry x="230" y="460" width="480" height="60" as="geometry" />
        </mxCell>
        <mxCell id="Q5K_X9j4IUWQNPOCZs-H-27" value="" style="rounded=1;whiteSpace=wrap;html=1;" vertex="1" parent="1">
          <mxGeometry x="230" y="555" width="480" height="60" as="geometry" />
        </mxCell>
        <mxCell id="Q5K_X9j4IUWQNPOCZs-H-29" value="" style="rounded=0;whiteSpace=wrap;html=1;" vertex="1" parent="1">
          <mxGeometry x="880" y="200" width="690" height="510" as="geometry" />
        </mxCell>
        <mxCell id="Q5K_X9j4IUWQNPOCZs-H-30" value="商家看到的/manage/categry" style="rounded=0;whiteSpace=wrap;html=1;" vertex="1" parent="1">
          <mxGeometry x="880" y="200" width="690" height="60" as="geometry" />
        </mxCell>
        <mxCell id="Q5K_X9j4IUWQNPOCZs-H-31" value="用户昵称" style="rounded=0;whiteSpace=wrap;html=1;" vertex="1" parent="1">
          <mxGeometry x="1500" y="200" width="70" height="60" as="geometry" />
        </mxCell>
        <mxCell id="Q5K_X9j4IUWQNPOCZs-H-32" value="个人详情" style="rounded=0;whiteSpace=wrap;html=1;" vertex="1" parent="1">
          <mxGeometry x="1500" y="140" width="70" height="60" as="geometry" />
        </mxCell>
        <mxCell id="Q5K_X9j4IUWQNPOCZs-H-34" value="退出登录" style="rounded=0;whiteSpace=wrap;html=1;" vertex="1" parent="1">
          <mxGeometry x="1500" y="80" width="70" height="60" as="geometry" />
        </mxCell>
        <mxCell id="Q5K_X9j4IUWQNPOCZs-H-35" value="" style="rounded=0;whiteSpace=wrap;html=1;" vertex="1" parent="1">
          <mxGeometry x="880" y="260" width="120" height="450" as="geometry" />
        </mxCell>
        <mxCell id="Q5K_X9j4IUWQNPOCZs-H-36" value="类别2" style="rounded=0;whiteSpace=wrap;html=1;" vertex="1" parent="1">
          <mxGeometry x="880" y="320" width="120" height="60" as="geometry" />
        </mxCell>
        <mxCell id="Q5K_X9j4IUWQNPOCZs-H-37" value="分类1" style="rounded=0;whiteSpace=wrap;html=1;" vertex="1" parent="1">
          <mxGeometry x="880" y="260" width="120" height="60" as="geometry" />
        </mxCell>
        <mxCell id="Q5K_X9j4IUWQNPOCZs-H-38" value="类别3" style="rounded=0;whiteSpace=wrap;html=1;" vertex="1" parent="1">
          <mxGeometry x="880" y="380" width="120" height="60" as="geometry" />
        </mxCell>
        <mxCell id="Q5K_X9j4IUWQNPOCZs-H-44" value="" style="rounded=0;whiteSpace=wrap;html=1;" vertex="1" parent="1">
          <mxGeometry x="1020" y="320" width="520" height="365" as="geometry" />
        </mxCell>
        <mxCell id="Q5K_X9j4IUWQNPOCZs-H-45" value="取消" style="rounded=0;whiteSpace=wrap;html=1;" vertex="1" parent="1">
          <mxGeometry x="1470" y="270" width="70" height="40" as="geometry" />
        </mxCell>
        <mxCell id="Q5K_X9j4IUWQNPOCZs-H-46" value="保存&lt;span style=&quot;white-space: pre;&quot;&gt;&#x9;&lt;/span&gt;" style="rounded=0;whiteSpace=wrap;html=1;" vertex="1" parent="1">
          <mxGeometry x="1390" y="270" width="70" height="40" as="geometry" />
        </mxCell>
        <mxCell id="Q5K_X9j4IUWQNPOCZs-H-48" value="" style="rounded=0;whiteSpace=wrap;html=1;" vertex="1" parent="1">
          <mxGeometry x="1120" y="335" width="400" height="40" as="geometry" />
        </mxCell>
        <mxCell id="Q5K_X9j4IUWQNPOCZs-H-49" value="名称" style="text;html=1;strokeColor=none;fillColor=none;align=center;verticalAlign=middle;whiteSpace=wrap;rounded=0;" vertex="1" parent="1">
          <mxGeometry x="1030" y="340" width="60" height="30" as="geometry" />
        </mxCell>
        <mxCell id="Q5K_X9j4IUWQNPOCZs-H-50" value="详细" style="text;html=1;strokeColor=none;fillColor=none;align=center;verticalAlign=middle;whiteSpace=wrap;rounded=0;" vertex="1" parent="1">
          <mxGeometry x="1030" y="380" width="60" height="30" as="geometry" />
        </mxCell>
        <mxCell id="Q5K_X9j4IUWQNPOCZs-H-51" value="可滚动的，要求不超过100字" style="rounded=0;whiteSpace=wrap;html=1;" vertex="1" parent="1">
          <mxGeometry x="1120" y="380" width="400" height="80" as="geometry" />
        </mxCell>
        <mxCell id="Q5K_X9j4IUWQNPOCZs-H-53" value="&lt;h1&gt;Heading&lt;/h1&gt;&lt;p&gt;L菜品详情&lt;/p&gt;" style="text;html=1;strokeColor=none;fillColor=none;spacing=5;spacingTop=-20;whiteSpace=wrap;overflow=hidden;rounded=0;" vertex="1" parent="1">
          <mxGeometry x="230" y="285" width="500" height="120" as="geometry" />
        </mxCell>
        <mxCell id="Q5K_X9j4IUWQNPOCZs-H-55" value="用户昵称" style="whiteSpace=wrap;html=1;aspect=fixed;" vertex="1" parent="1">
          <mxGeometry x="690" y="200" width="70" height="70" as="geometry" />
        </mxCell>
        <mxCell id="Q5K_X9j4IUWQNPOCZs-H-56" value="个人详情" style="whiteSpace=wrap;html=1;aspect=fixed;" vertex="1" parent="1">
          <mxGeometry x="690" y="130" width="70" height="70" as="geometry" />
        </mxCell>
        <mxCell id="Q5K_X9j4IUWQNPOCZs-H-57" value="退出登录" style="whiteSpace=wrap;html=1;aspect=fixed;" vertex="1" parent="1">
          <mxGeometry x="690" y="60" width="70" height="70" as="geometry" />
        </mxCell>
        <mxCell id="Q5K_X9j4IUWQNPOCZs-H-59" value="购物车" style="whiteSpace=wrap;html=1;aspect=fixed;" vertex="1" parent="1">
          <mxGeometry x="620" y="200" width="70" height="70" as="geometry" />
        </mxCell>
        <mxCell id="Q5K_X9j4IUWQNPOCZs-H-60" value="" style="rounded=0;whiteSpace=wrap;html=1;" vertex="1" parent="1">
          <mxGeometry x="80" y="810" width="680" height="520" as="geometry" />
        </mxCell>
        <mxCell id="Q5K_X9j4IUWQNPOCZs-H-61" value="个人信息/user" style="rounded=0;whiteSpace=wrap;html=1;" vertex="1" parent="1">
          <mxGeometry x="80" y="810" width="680" height="60" as="geometry" />
        </mxCell>
        <mxCell id="Q5K_X9j4IUWQNPOCZs-H-62" value="" style="rounded=0;whiteSpace=wrap;html=1;" vertex="1" parent="1">
          <mxGeometry x="80" y="870" width="120" height="460" as="geometry" />
        </mxCell>
        <mxCell id="Q5K_X9j4IUWQNPOCZs-H-65" value="" style="rounded=0;whiteSpace=wrap;html=1;" vertex="1" parent="1">
          <mxGeometry x="-773" y="197.5" width="720" height="515" as="geometry" />
        </mxCell>
        <mxCell id="Q5K_X9j4IUWQNPOCZs-H-66" value="" style="rounded=0;whiteSpace=wrap;html=1;" vertex="1" parent="1">
          <mxGeometry x="-620" y="310" width="430" height="250" as="geometry" />
        </mxCell>
        <mxCell id="Q5K_X9j4IUWQNPOCZs-H-68" value="" style="rounded=0;whiteSpace=wrap;html=1;" vertex="1" parent="1">
          <mxGeometry x="-527" y="330" width="297" height="60" as="geometry" />
        </mxCell>
        <mxCell id="Q5K_X9j4IUWQNPOCZs-H-70" value="昵称" style="text;html=1;strokeColor=none;fillColor=none;align=center;verticalAlign=middle;whiteSpace=wrap;rounded=0;" vertex="1" parent="1">
          <mxGeometry x="-600" y="360" width="60" height="30" as="geometry" />
        </mxCell>
        <mxCell id="Q5K_X9j4IUWQNPOCZs-H-71" value="" style="rounded=0;whiteSpace=wrap;html=1;" vertex="1" parent="1">
          <mxGeometry x="-527" y="410" width="300" height="60" as="geometry" />
        </mxCell>
        <mxCell id="Q5K_X9j4IUWQNPOCZs-H-72" value="密码" style="text;html=1;strokeColor=none;fillColor=none;align=center;verticalAlign=middle;whiteSpace=wrap;rounded=0;" vertex="1" parent="1">
          <mxGeometry x="-600" y="420" width="60" height="30" as="geometry" />
        </mxCell>
        <mxCell id="Q5K_X9j4IUWQNPOCZs-H-73" value="登录" style="rounded=0;whiteSpace=wrap;html=1;" vertex="1" parent="1">
          <mxGeometry x="-527" y="490" width="120" height="60" as="geometry" />
        </mxCell>
        <mxCell id="Q5K_X9j4IUWQNPOCZs-H-74" value="注册" style="rounded=0;whiteSpace=wrap;html=1;" vertex="1" parent="1">
          <mxGeometry x="-347" y="490" width="120" height="60" as="geometry" />
        </mxCell>
      </root>
    </mxGraphModel>
  </diagram>
</mxfile>
